P1
# CREATOR: GIMP PNM Filter Version 1.1
120 84
0000000000000000000000000000000000000000000000000000000000000000000000
0000000000000000000000000000000000000000000000000000000000000000000000
0000000000000000000000000000000000000000000000000000000000000000000000
0000000000000000000000000000000000000000110000110011001100110000111100
1100000011110000001100000000110011000000110011000000000000000000000000
0000000000000000000011000011001100110011000011110011000000111100000011
0000000011001100000011001100000000000000000000000000000000000000000000
1100001100110011111100111100000000110011110000001100000011000000110000
0011000000110000000000000000000000000000000000000011000011001100111111
0011110000000011001111000000110000001100000011000000110000001100000000
0000000000000000000000000000001100000000000011001100001111000011000011
1111000000000000110000001100001100110011111100000000001111110000000000
0000000000110000000000001100110000111100001100001111110000000000001100
0000110000110011001111110000000000111111000000000000000000000000000000
0000111111001111000011000000110011000000000000110000001100000000000000
1100000011000000000000000000000000000000000000000000001111110011110000
1100000011001100000000000011000000110000000000000011000000110000000000
0000000000000000000011000000000000110011000011000000001100001111000000
0000000011001100000000000000000000001100000000000000001100000000000000
1100000000000011001100001100000000110000111100000000000000110011000000
0000000000000000110000000000000000110000000000000000000000000000000000
0000000000000000000000000000000000000000000000000000000000000000000000
0000000000000000000000000000000000000000000000000000000000000000000000
0000000000000000000000000000000000000000000000000000000000000000000000
0000001100001111000011000011110000111100001100110011111100001111001111
1100111111001111110000000000000000000000110000000000000011000011110000
1100001111000011110000110011001111110000111100111111001111110011111100
0000000000000000000011000000000000001100110011001111000000001100000011
0011001100110000001100000000001100110011001100110000110000001100000011
0000111111000000110011001100111100000000110000001100110011001100000011
0000000000110011001100110011000011000000110000001100001111110000110000
1100110000110000001100000011000011111100111100001111110000110000111111
0011111100000000000000000011000000000000000011000011001100001100000011
0000001100001111110011110000111111000011000011111100111111000000000000
0000001100000000000000110000001100110000110000110000000000110000001100
0000110011001100110000001100110000001100001100000011000000110000111111
0011000000110011000011000011000000000011000000110000001100110011001100
0000110011000000110000110000001100000011000011111100110000001111000000
1100001111110011110000000011001111000011111100110000001111110011110000
0000000011000000000011000000000011000000111100000011000011111100111100
0000001100111100001111110011000000111111001111000000000000110000000000
1100000000000000000000000000000000000000000000000000000000000000000000
0000000000000000000000000000000000000000000000000000000000000000000000
0000000000000000000000000000000000000000000000000000000000000000000000
0000000000000000000000000000000000000000001100000011111100001100000011
0000111100000011110011110000111111001111110000111100110011001111110000
0011001100110011000000110000001111110000110000001100001111000000111100
1111000011111100111111000011110011001100111111000000110011001100110000
0000110000000011001100110011001100110011001100000011001100110000001100
0000110000001100110000110000000011001100110011000000001100000000110011
0011001100110011001100110000001100110011000000110000001100000011001100
0011000000001100110011001100000000001100001100001111110011111100111100
0011000000110011001111110011111100111111001111110000110000000011001111
0000110000000000110000110000111111001111110011110000110000001100110011
1111001111110011111100111111000011000000001100111100001100000000110000
0000000011000000110011001100110011000000110011001100000011000000110011
0011001100001100001100110011001100110000000011000000000000110000001100
1100110011001100000011001100110000001100000011001100110011000011000011
0011001100110011000000110000000011000000111100110011001111000000111100
1111000011111100110000000011110011001100111111000011000011001100111111
0011000000001100000011110011001100111100000011110011110000111111001100
0000001111001100110011111100001100001100110011111100000000000000000000
0000000000000000000000000000000000000000000000000000000000000000000000
0000000000000000000000000000000000000000000000000000000000000000000000
0000000000000000000000000000000000000000000000000000000000000000000000
0000000000001100110011001100001100001111000000110000111100000011110011
1111001100110011001100110011001100110011001100111111001111110011001100
1100110000110000111100000011000011110000001111001111110011001100110011
0011001100110011001100110011111100111111001111110011111100110011001100
1100110011001100110011000000001100001100110011001100110011001100110011
0011000000110011000000111111001111110011001100110011001100110011001100
1100000000110000110011001100110011001100110011001100110000001100110000
0011111100111111001100110011110000110011001111110000110000001100001100
1100110011001111110000110000001100000011000011000000111111001111110011
0011001111000011001100111111000011000000110000110011001100110011111100
0011000000110000001100001100000011001100111111001100110011000000111111
0011110000000011000011000011001100001100001111110011001100001100001100
0000110000001100110011111100110011001100000011111100111100000000110000
1100001100110000110000111111001100110000110000110000001100000011001100
1100110000110000110000000011110011001100111100000011000000111100001100
0011001100110011000011000011111100111111001100110011001100001100001100
0000001111001100110011110000001100000011110000110000110011001100110000
1100001111110011111100000000000000000000000000000000000000000000000000
0000000000000000000000000000000000000000000000000000000000000000000000
0000000000000000000000000000000000000000000000000000000000000000000000
0000000000000000000000000000000000000000000000000000000000001111110000
1100000000000011000000000000001100000000000000000011000000000000001100
0011110011000000001100000000110000000000111111000011000000000000110000
0000000000110000000000000000001100000000000000110000111100110000000011
0000000011001100000000001100110011000000000000110000111100001111000000
1111000011110000111100001100001100110011110000000000000000000011000000
0000110011001100000000000011000011110000111100000011110000111100001111
0000110000110011001111000000000000000000000011000000001100000000000000
0000000000000011110011001100110000001100110011001100111111001111110011
0011000011000000001100001100000000110000000000000000000000000000111100
1100110011000000110011001100110011111100111111001100110000110000000011
0000001100000011000000000000000000000000001100110011001100110000001100
1100111100000011000000001100110011000011000011001100000011000000110000
0000000000000000000000110011001100110011000000110011001111000000110000
0000110011001100001100001100110000000000111111000000000011111100000000
0011111100111100000011110000111100001111000011000000110000110011000011
0000001100000000000011111100000000001111110000000000111111001111000000
1111000011110000111100001100000011000011001100001100000011000000000000
0000000000000000000000000000000000000000000000000000000000000000000000
0000000000000000000000000000000000000000000000000000000000000000000000
0000000000000000000000000000000000000000000000000000000000000000000000
0000000000000000000000110000001111000000000000000000000000000011110000
0011110000000000000000000000000000000000000000000000000000000000110011
0011000000111100000000000000000000000000001111000000111100000000000000
0000000000000000000000000000000000000000000011001100110011000011000011
1111001111000000110000110011001100110000111100001111001111110011001100
1100110011001100110011001100110011001100001100001111110011110000001100
0011001100110011000011110000111100111111001100110011001100110011001100
1100110011001111000000110000111111001100110011001100110011001100110011
0000001111000000110000110011001100110011111100001100000011110011110000
0011000011111100110011001100110011001100110011001100000011110000001100
0011001100110011001111110000110000001111001111000000110000111111001100
1100110011001111000000111100110000000011110000110000110011001111110011
1111000011000000001100111100000011000011111100110011001100110011110000
0011110011000000001111000011000011001100111111001111110000110000000011
0011001100111111001100110011001100001100001100000000001100110000001111
0000001111000011110000110000111111001100110000110000110011001111110011
0011001100110000110000110000000000110011000000111100000011110000111100
0011000011111100110011000011000000000000000000000000000000000000000000
0000000000000000000000000000000000000000000000000000000000000000000000
0000000000000000000000000000000000000000000000000000000000000000000000
0000000000000000000000000000000000000000000000000000000000000000000000
0000000000000000000000000000000000000000000000000000000000000000000000
0000000000000000000000000000000000000000000000000000000000000000000000
0000000000000000000000000000000000000000000000000000000000000000000000
0000000000000000000000111111000000000000000000000000000000000000000000
0000000000000000000000000000000000000000000000000000000000000000000000
0011111100000000000000000000000000000000000000000000000000000000000000
0000000000000000000000000000000000000000000000000000001111000000000000
0000000000000000000000000000000000000000000000000000000000000000000000
0000000000000000000000000000000000111100000000000000000000000000000000
0000000000000000000000000000000000000000000000000000000000000000000000
0000000000001111000000000000000000000000000000000000000000000000000000
0000000000000000000000000000000000000000000000000000000000000011110000
0000000000000000000000000000000000000000000000000000000000000000000000
0000000000000000000000000000000000000000001111110000000000000000000000
0000000000000000000000000000000000000000000000000000000000000000000000
0000000000000000000000111111000000000000000000000000000000000000000000
0000000000000000000000000000000000000000000000000000000000000000000000