P1
# CREATOR: GIMP PNM Filter Version 1.1
60 42
0000000000000000000000000000000000000000000000000000000000000000010010
1010100110100011000100001010001010000000000000000000000100101011101100
0010110001000100010001000100000000000000000001000000101001100100111000
0001000100101011100000111000000000000000001110110010001010000001000100
0000010001000000000000000100000010100100001001100000001010000000000010
0000000100000000000000000000000000000000000000000000000000000000000000
0001001100100110011001010111001101110111011100000000000100000001010101
1000010001010101000100000101010101001000100010011100100101001000100010
0111011001110010011101110000000001000000010001010010010000010001000101
0101000101000100100010001001110100011000100111011000010110011101000111
0110000001000001000000000000000000000000000000000000000000000000000000
0000000000010001110010001001100011011001110111001101010111000101010100
0010000101010101010101000101010001000100010100100001010101000001001001
1101110110010001010111011101110111001000010110010000100000010001010101
0100010101000100010101010010010101010100010000100011010101100011011001
1101000011010101110010010101110000000000000000000000000000000000000000
0000000000000000000001010101001001100010011000110111010101010101010101
0101110111011101110101010101010101010000100101010101010101010100010100
0111011101010110010101110010001001010101011100100010001001000101011101
0101000111011000010010010100100111010100100100010001010101001001000011
0101011000100011001001010101001001110111000000000000000000000000000000
0000000000000000000000000000000000011100100000010000000100000000010000
0001001101000010000101000001010100000010011001100011001100110010010101
1000000000001000010000000000000011010101000101010101110111010100100001
0001000100000000000001010101010001010110001000010101001001010000011100
0001110000011101100011001100110010001001010010001000000000000000000000
0000000000000000000000000000000000000000010001100000000000000110001100
0000000000000000000000000001010101001001110110001001010101001100110111
0101010101010101010101100010011101010101010101010100011000100101010101
1100100011011000100111010101010110001101000011001001010111011100100001
0101011101010101001001000001010001100011001100100111010100100000000000
0000000000000000000000000000000000000000000000000000000000000000000000
0000000000000000000000000000000000000000011100000000000000000000000000
0000000000000000000000000000000011000000000000000000000000000000000000
0000000000000000000001100000000000000000000000000000000000000000000000
0000000000011100000000000000000000000000000000000000000000000000000000