P1
# CREATOR: GIMP PNM Filter Version 1.1
61 43
0000000000000000000000000000000000000000000000000000000000000000001001
0101010011010001100010000101000101000000000000000000000001001010111011
0000101100010001000100010001000000000000000000001000000101001100100111
0000001000100101011100000111000000000000000000111011001000101000000100
0100000001000100000000000000001000000101001000010011000000010100000000
0001000000001000000000000000000000000000000000000000000000000000000000
0000000000100110010011001100101011100110111011101110000000000010000000
0101010110000100010101010001000001010101010010001000100111000100101001
0001000100111011001110010011101110000000001000000001000101001001000001
0001000101010100010100010010001000100111001000110001001110110000101100
1110100011101100000010000010000000000000000000000000000000000000000000
0000000000000000000000001000111001000100110001101100111011100110101011
1000101010100000100001010101010101010001010100010001000101001000010101
0100000010010011101110110010001010111011101110111001000010110010000010
0000010001010101010001010100010001010101001001010101010000100001000110
1010110001101100111010000110101011100100101011100000000000000000000000
0000000000000000000000000000000000000000101010100100110001001100011011
1010101010101010101010111011100111011101010101010101010100001001010101
0101010101010001010000111011101010110010101110010001001010101011100100
0100010010000101011101010100011101100001001001010010011101010010010001
0000101010100100100001101010110001000110010010101010010011101110000000
0000000000000000000000000000000000000000000000000000000000001110010000
0010000000100000000010000000100110100001000010010000010101000000100110
0110001100110011001001010110000000000001000010000000000000011010101000
1010101011101110101001000010000100010000000000000101010101000101011000
1000010101001001010000001110000011100000111011000110011001100100010010
1001000100000000000000000000000000000000000000000000000000000000000000
0010001100000000000000110001100000000000000000000000000000101001010010
0111011000100101010100110011011101010101010101010101001100010011101010
1010101010101000110001001010101011100100011001100010011101010101011000
1101000011001001010111011100100001001010111010101010010010000010100011
0001100110010011101010010000000000000000000000000000000000000000000000
0000000000000000000000000000000000000000000000000000000000000000000000
0000000001110000000000000000000000000000000000000000000000000000000000
0110000000000000000000000000000000000000000000000000000000000110000000
0000000000000000000000000000000000000000000000000000111000000000000000
0000000000000000000000000000000000000000000000000000000000000000000000
000000000000000000000000000000000